<svg width="77" height="77" viewBox="0 0 77 77" fill="none" xmlns="http://www.w3.org/2000/svg">
<g filter="url(#filter0_d)">
<circle cx="28.5" cy="28.5" r="28.5" fill="#ECECEC"/>
</g>
<path d="M30.2673 21.2093C29.9674 20.9236 29.4926 20.9351 29.2069 21.235C28.9212 21.535 28.9328 22.0097 29.2327 22.2954L35.4841 28.25H20.75C20.3358 28.25 20 28.5858 20 29C20 29.4142 20.3358 29.75 20.75 29.75H35.4842L29.2327 35.7047C28.9328 35.9904 28.9212 36.4651 29.2069 36.7651C29.4926 37.065 29.9674 37.0765 30.2673 36.7908L37.6862 29.7241C37.8551 29.5632 37.9551 29.358 37.9861 29.1446C37.9952 29.0978 38 29.0495 38 29C38 28.9504 37.9952 28.902 37.986 28.8551C37.955 28.6419 37.855 28.4368 37.6862 28.276L30.2673 21.2093Z" fill="#828282"/>
<defs>
<filter id="filter0_d" x="0" y="0" width="77" height="77" filterUnits="userSpaceOnUse" color-interpolation-filters="sRGB">
<feFlood flood-opacity="0" result="BackgroundImageFix"/>
<feColorMatrix in="SourceAlpha" type="matrix" values="0 0 0 0 0 0 0 0 0 0 0 0 0 0 0 0 0 0 127 0"/>
<feOffset dx="10" dy="10"/>
<feGaussianBlur stdDeviation="5"/>
<feColorMatrix type="matrix" values="0 0 0 0 0.560784 0 0 0 0 0.572549 0 0 0 0 0.619608 0 0 0 0.1 0"/>
<feBlend mode="normal" in2="BackgroundImageFix" result="effect1_dropShadow"/>
<feBlend mode="normal" in="SourceGraphic" in2="effect1_dropShadow" result="shape"/>
</filter>
</defs>
</svg>
