<svg width="77" height="77" viewBox="0 0 77 77" fill="none" xmlns="http://www.w3.org/2000/svg">
<g filter="url(#filter0_d)">
<circle cx="28.5" cy="28.5" r="28.5" fill="url(#paint0_linear)"/>
</g>
<path d="M27.7327 36.7907C28.0326 37.0764 28.5074 37.0649 28.7931 36.7649C29.0788 36.465 29.0672 35.9903 28.7673 35.7046L22.5159 29.75L37.25 29.75C37.6642 29.75 38 29.4142 38 29C38 28.5858 37.6642 28.25 37.25 28.25L22.5158 28.25L28.7673 22.2953C29.0672 22.0096 29.0787 21.5348 28.7931 21.2349C28.5074 20.935 28.0326 20.9234 27.7327 21.2091L20.3138 28.2758C20.1449 28.4367 20.0449 28.642 20.0139 28.8554C20.0048 28.9022 20 28.9505 20 29C20 29.0495 20.0048 29.098 20.014 29.1449C20.045 29.3581 20.145 29.5632 20.3138 29.724L27.7327 36.7907Z" fill="white"/>
<defs>
<filter id="filter0_d" x="0" y="0" width="77" height="77" filterUnits="userSpaceOnUse" color-interpolation-filters="sRGB">
<feFlood flood-opacity="0" result="BackgroundImageFix"/>
<feColorMatrix in="SourceAlpha" type="matrix" values="0 0 0 0 0 0 0 0 0 0 0 0 0 0 0 0 0 0 127 0"/>
<feOffset dx="10" dy="10"/>
<feGaussianBlur stdDeviation="5"/>
<feColorMatrix type="matrix" values="0 0 0 0 0.560784 0 0 0 0 0.572549 0 0 0 0 0.619608 0 0 0 0.1 0"/>
<feBlend mode="normal" in2="BackgroundImageFix" result="effect1_dropShadow"/>
<feBlend mode="normal" in="SourceGraphic" in2="effect1_dropShadow" result="shape"/>
</filter>
<linearGradient id="paint0_linear" x1="28.5" y1="0" x2="28.5" y2="57" gradientUnits="userSpaceOnUse">
<stop stop-color="#EB7734"/>
<stop offset="1" stop-color="#F6B435"/>
</linearGradient>
</defs>
</svg>
