<svg width="40" height="40" viewBox="0 0 40 40" fill="none" xmlns="http://www.w3.org/2000/svg">
<path d="M30.0011 16.6667C33.6836 16.6667 36.6688 19.6519 36.6688 23.3344C36.6688 25.0262 36.0388 26.5708 35.0005 27.7464L35.0004 35.4145C35.0004 36.3658 33.9929 36.9469 33.1835 36.5293L33.0344 36.4392L30.0005 34.3187L26.9677 36.4392C26.1879 36.984 25.1345 36.491 25.0133 35.5884L25.0018 35.4145L25.0002 27.7447C23.9628 26.5693 23.3333 25.0254 23.3333 23.3344C23.3333 19.6519 26.3186 16.6667 30.0011 16.6667ZM32.499 29.5185C31.7275 29.8304 30.8843 30.0021 30.0011 30.0021C29.1166 30.0021 28.2723 29.8299 27.4999 29.5171L27.5005 33.0154L29.2851 31.7702C29.6614 31.5073 30.1463 31.4744 30.5497 31.6716L30.717 31.7702L32.4988 33.0154L32.499 29.5185ZM32.0833 5.00701C34.5209 5.00701 36.514 6.90985 36.6583 9.31114L36.6667 9.59034L36.669 18.3334C35.9951 17.4364 35.1445 16.6798 34.1688 16.1153L34.1667 9.59034C34.1667 8.51166 33.3469 7.62445 32.2964 7.51776L32.0833 7.50701H7.91668C6.838 7.50701 5.95079 8.3268 5.8441 9.37733L5.83334 9.59034V25.4237C5.83334 26.5024 6.65313 27.3896 7.70367 27.4963L7.91668 27.507L22.7861 27.5091L22.9925 27.8465L23.2152 28.1743L23.3333 28.33L23.3317 30.007H7.91668C5.47912 30.007 3.486 28.1042 3.34171 25.7029L3.33334 25.4237V9.59034C3.33334 7.15279 5.23618 5.15967 7.63747 5.01537L7.91668 5.00701H32.0833ZM30.0011 19.1667C27.6993 19.1667 25.8333 21.0326 25.8333 23.3344C25.8333 25.6362 27.6993 27.5021 30.0011 27.5021C32.3029 27.5021 34.1688 25.6362 34.1688 23.3344C34.1688 21.0326 32.3029 19.1667 30.0011 19.1667ZM18.75 20.8333C19.4404 20.8333 20 21.393 20 22.0833C20 22.7162 19.5298 23.2392 18.9196 23.3219L18.75 23.3333H11.25C10.5597 23.3333 10 22.7737 10 22.0833C10 21.4505 10.4703 20.9275 11.0804 20.8447L11.25 20.8333H18.75ZM28.75 11.6667C29.4404 11.6667 30 12.2263 30 12.9167C30 13.5495 29.5298 14.0725 28.9196 14.1553L28.75 14.1667H11.25C10.5597 14.1667 10 13.607 10 12.9167C10 12.2838 10.4703 11.7608 11.0804 11.6781L11.25 11.6667H28.75Z" fill="#EB7734"/>
</svg>
