<svg width="18" height="20" viewBox="0 0 18 20" fill="none" xmlns="http://www.w3.org/2000/svg">
<path d="M2.84302 2.56831C6.24343 -0.832097 11.7566 -0.832097 15.157 2.56831C18.5574 5.96872 18.5574 11.4819 15.157 14.8823L13.97 16.0562C13.0951 16.9149 11.96 18.0188 10.5642 19.3684C9.69192 20.2117 8.3081 20.2116 7.43598 19.3681L3.94489 15.9723C3.50612 15.5414 3.13886 15.1781 2.84302 14.8823C-0.557393 11.4819 -0.557393 5.96872 2.84302 2.56831ZM14.0963 3.62897C11.2817 0.814349 6.7183 0.814349 3.90368 3.62897C1.08905 6.4436 1.08905 11.007 3.90368 13.8216L5.39075 15.2891C6.20966 16.0905 7.23912 17.0909 8.4788 18.2899C8.7695 18.5711 9.23078 18.5711 9.52153 18.29L12.9164 14.9885C13.3854 14.5282 13.7787 14.1393 14.0963 13.8216C16.911 11.007 16.911 6.4436 14.0963 3.62897ZM9 5.99897C10.6577 5.99897 12.0016 7.34281 12.0016 9.00052C12.0016 10.6582 10.6577 12.0021 9 12.0021C7.34229 12.0021 5.99845 10.6582 5.99845 9.00052C5.99845 7.34281 7.34229 5.99897 9 5.99897ZM9 7.49897C8.17072 7.49897 7.49845 8.17124 7.49845 9.00052C7.49845 9.8298 8.17072 10.5021 9 10.5021C9.82929 10.5021 10.5016 9.8298 10.5016 9.00052C10.5016 8.17124 9.82929 7.49897 9 7.49897Z" fill="#333333"/>
</svg>
