<svg width="32" height="32" viewBox="0 0 32 32" fill="none" xmlns="http://www.w3.org/2000/svg">
<path d="M12.271 5.33178L12.3337 5.3301L12.3947 5.33171C12.4247 5.33344 12.4546 5.33655 12.4846 5.34109L12.506 5.34616C12.6199 5.36446 12.7331 5.40513 12.8409 5.46903L12.9101 5.51375L19.6705 10.2674L26.4266 5.51821C27.0502 5.07982 27.8952 5.47386 27.9924 6.19698L28.0017 6.3363V20.513C28.0017 20.7921 27.8852 21.0562 27.6842 21.2439L27.5768 21.3311L20.2434 26.4863C19.8876 26.7364 19.4596 26.7155 19.1397 26.5171L12.3332 21.7288L5.57363 26.4818C4.95001 26.9202 4.10502 26.5261 4.00777 25.803L3.99854 25.6637V11.487C3.99854 11.2079 4.115 10.9438 4.31603 10.7561L4.42344 10.6689L11.7568 5.51375C11.8421 5.45376 11.9316 5.40936 12.0227 5.37925L12.186 5.34191L12.271 5.33178ZM26.0017 8.26164L20.6683 12.0108V23.7428L26.0017 19.9936V8.26164ZM11.3319 8.25718L5.99854 12.0064V23.7384L11.3319 19.9892V8.25718ZM13.335 8.25718V19.9892L18.6683 23.7384V12.0064L13.335 8.25718Z" fill="#EB7734"/>
</svg>
