<svg width="24" height="24" viewBox="0 0 24 24" fill="none" xmlns="http://www.w3.org/2000/svg">
<path d="M12.001 2.00073C17.5238 2.00073 22.001 6.47788 22.001 12.0007C22.001 17.5236 17.5238 22.0007 12.001 22.0007C6.47813 22.0007 2.00098 17.5236 2.00098 12.0007C2.00098 6.47788 6.47813 2.00073 12.001 2.00073ZM16.2503 11.25H7.75027C7.33606 11.25 7.00027 11.5858 7.00027 12C7.00027 12.4142 7.33606 12.75 7.75027 12.75H16.2503C16.6645 12.75 17.0003 12.4142 17.0003 12C17.0003 11.5858 16.6645 11.25 16.2503 11.25Z" fill="url(#paint0_linear)"/>
<defs>
<linearGradient id="paint0_linear" x1="2.00098" y1="2.00073" x2="22.8903" y2="2.9773" gradientUnits="userSpaceOnUse">
<stop stop-color="#EB7734"/>
<stop offset="1" stop-color="#F6B435"/>
</linearGradient>
</defs>
</svg>
