<svg width="40" height="40" viewBox="0 0 40 40" fill="none" xmlns="http://www.w3.org/2000/svg">
<path d="M24.5833 25C26.1941 25 27.5 26.3058 27.5 27.9167L27.4982 29.5201C27.6926 33.1686 24.9799 35.0151 20.1113 35.0151C15.2631 35.0151 12.5 33.1987 12.5 29.5833V27.9167C12.5 26.3058 13.8058 25 15.4166 25H24.5833ZM24.5833 27.5H15.4166C15.1865 27.5 15 27.6865 15 27.9167V29.5833C15 31.5436 16.4778 32.5151 20.1113 32.5151C23.7245 32.5151 25.1042 31.5759 25 29.5866V27.9167C25 27.6865 24.8134 27.5 24.5833 27.5ZM6.24998 16.6667L13.5433 16.6668C13.4062 17.1995 13.3333 17.7579 13.3333 18.3333C13.3333 18.6152 13.3508 18.8929 13.3848 19.1656L6.24998 19.1667C6.01986 19.1667 5.83331 19.3532 5.83331 19.5833V21.25C5.83331 23.2103 7.31109 24.1817 10.9446 24.1817C11.7145 24.1817 12.3829 24.1391 12.9572 24.0528C12.0153 24.6495 11.3091 25.5816 11.002 26.6803L10.9446 26.6817C6.09642 26.6817 3.33331 24.8654 3.33331 21.25V19.5833C3.33331 17.9725 4.63915 16.6667 6.24998 16.6667ZM33.75 16.6667C35.3608 16.6667 36.6666 17.9725 36.6666 19.5833L36.6649 21.1868C36.8593 24.8353 34.1466 26.6817 29.278 26.6817L28.9975 26.6788C28.6817 25.5504 27.9449 24.5978 26.9671 24.0013C27.6116 24.1222 28.3788 24.1817 29.278 24.1817C32.8911 24.1817 34.2709 23.2426 34.1666 21.2533V19.5833C34.1666 19.3532 33.9801 19.1667 33.75 19.1667L26.6152 19.1654C26.6492 18.8928 26.6666 18.6151 26.6666 18.3333C26.6666 17.7579 26.5937 17.1995 26.4567 16.6668L33.75 16.6667ZM20 13.3333C22.7614 13.3333 25 15.5719 25 18.3333C25 21.0948 22.7614 23.3333 20 23.3333C17.2386 23.3333 15 21.0948 15 18.3333C15 15.5719 17.2386 13.3333 20 13.3333ZM20 15.8333C18.6193 15.8333 17.5 16.9526 17.5 18.3333C17.5 19.714 18.6193 20.8333 20 20.8333C21.3807 20.8333 22.5 19.714 22.5 18.3333C22.5 16.9526 21.3807 15.8333 20 15.8333ZM10.8333 5C13.5947 5 15.8333 7.23858 15.8333 10C15.8333 12.7614 13.5947 15 10.8333 15C8.07189 15 5.83331 12.7614 5.83331 10C5.83331 7.23858 8.07189 5 10.8333 5ZM29.1666 5C31.9281 5 34.1666 7.23858 34.1666 10C34.1666 12.7614 31.9281 15 29.1666 15C26.4052 15 24.1666 12.7614 24.1666 10C24.1666 7.23858 26.4052 5 29.1666 5ZM10.8333 7.5C9.4526 7.5 8.33331 8.61929 8.33331 10C8.33331 11.3807 9.4526 12.5 10.8333 12.5C12.214 12.5 13.3333 11.3807 13.3333 10C13.3333 8.61929 12.214 7.5 10.8333 7.5ZM29.1666 7.5C27.7859 7.5 26.6666 8.61929 26.6666 10C26.6666 11.3807 27.7859 12.5 29.1666 12.5C30.5474 12.5 31.6666 11.3807 31.6666 10C31.6666 8.61929 30.5474 7.5 29.1666 7.5Z" fill="#EB7734"/>
</svg>
