<svg width="32" height="32" viewBox="0 0 32 32" fill="none" xmlns="http://www.w3.org/2000/svg">
<path d="M15.9997 2.66667C21.8907 2.66667 26.6663 7.4423 26.6663 13.3333C26.6663 16.7308 25.078 19.7573 22.6033 21.7107L22.6685 21.6588L22.6673 29.6604C22.6673 30.3927 21.9061 30.8767 21.2429 30.5659L16.0004 28.1092L10.7606 30.5659C10.0975 30.8768 9.33609 30.3928 9.33609 29.6604L9.33393 21.6612C6.89636 19.7094 5.33301 16.7039 5.33301 13.3333C5.33301 7.4423 10.1086 2.66667 15.9997 2.66667ZM20.668 22.9269L20.7216 22.9006C19.2982 23.6044 17.6951 24 15.9997 24C14.4991 24 13.0709 23.6902 11.7756 23.131L11.3354 22.9289L11.3361 28.0871L15.5758 26.0994C15.8447 25.9733 16.1557 25.9733 16.4246 26.0993L20.6673 28.0875L20.668 22.9269ZM15.9997 4.66667C11.2132 4.66667 7.33301 8.54687 7.33301 13.3333C7.33301 18.1198 11.2132 22 15.9997 22C20.7861 22 24.6663 18.1198 24.6663 13.3333C24.6663 8.54687 20.7861 4.66667 15.9997 4.66667ZM16.3047 8.85646L17.5214 11.3267L20.2467 11.7205C20.5258 11.7608 20.6373 12.1038 20.4354 12.3006L18.4642 14.2212L18.9296 16.9351C18.9772 17.213 18.6854 17.4248 18.436 17.2934L15.9997 16.0101L13.5634 17.2934C13.3138 17.4249 13.0219 17.2128 13.0698 16.9348L13.5374 14.2212L11.5641 12.3007C11.362 12.104 11.4735 11.7608 11.7526 11.7205L14.4779 11.3267L15.6946 8.85646C15.8193 8.60341 16.1801 8.60341 16.3047 8.85646Z" fill="#EB7734"/>
</svg>
