<svg width="20" height="20" viewBox="0 0 20 20" fill="none" xmlns="http://www.w3.org/2000/svg">
<g opacity="0.3">
<path d="M17.9825 5.7125C18.0992 5.325 17.9825 5.04083 17.4309 5.04083H15.6034C15.1384 5.04083 14.9259 5.28667 14.8092 5.55667C14.8092 5.55667 13.88 7.8225 12.5634 9.29167C12.1384 9.71917 11.9442 9.85417 11.7125 9.85417C11.5967 9.85417 11.4284 9.71917 11.4284 9.33167V5.7125C11.4284 5.2475 11.2942 5.04083 10.9067 5.04083H8.03502C7.74502 5.04083 7.57002 5.25583 7.57002 5.46083C7.57002 5.90083 8.22835 6.0025 8.29585 7.2425V9.9325C8.29585 10.5217 8.19002 10.6292 7.95669 10.6292C7.33752 10.6292 5.83085 8.355 4.93669 5.75167C4.76252 5.24583 4.58669 5.04167 4.12002 5.04167H2.29335C1.77085 5.04167 1.66669 5.2875 1.66669 5.5575C1.66669 6.0425 2.28585 8.4425 4.55085 11.6167C6.06085 13.7842 8.18669 14.9592 10.1234 14.9592C11.2842 14.9592 11.4275 14.6983 11.4275 14.2483V12.61C11.4275 12.0883 11.5384 11.9833 11.9059 11.9833C12.1759 11.9833 12.6409 12.12 13.725 13.1642C14.9634 14.4025 15.1684 14.9583 15.8642 14.9583H17.6909C18.2125 14.9583 18.4734 14.6975 18.3234 14.1825C18.1592 13.67 17.5675 12.9242 16.7825 12.0417C16.3559 11.5383 15.7184 10.9967 15.5242 10.7258C15.2534 10.3767 15.3317 10.2225 15.5242 9.9125C15.525 9.91333 17.7509 6.77833 17.9825 5.7125Z" fill="#333333"/>
</g>
</svg>
