<svg width="32" height="32" viewBox="0 0 32 32" fill="none" xmlns="http://www.w3.org/2000/svg">
<path d="M16.0003 2.66667C23.3643 2.66667 29.3337 8.63734 29.3337 16C29.3337 23.3627 23.3643 29.3333 16.0003 29.3333C8.63633 29.3333 2.66699 23.3627 2.66699 16C2.66699 8.63734 8.63633 2.66667 16.0003 2.66667ZM16.0003 4.88934C9.87366 4.88934 4.88966 9.87334 4.88966 16C4.88966 22.1267 9.87366 27.1107 16.0003 27.1107C22.127 27.1107 27.111 22.1267 27.111 16C27.111 9.87334 22.127 4.88934 16.0003 4.88934ZM15.0003 8.00001C15.5063 8.00001 15.9249 8.37645 15.9912 8.86437L16.0003 9.00001V16H20.3337C20.8857 16 21.3337 16.448 21.3337 17C21.3337 17.506 20.9572 17.9246 20.4693 17.9909L20.3337 18H15.0003C14.4943 18 14.0757 17.6236 14.0095 17.1356L14.0003 17V9.00001C14.0003 8.44801 14.4483 8.00001 15.0003 8.00001Z" fill="#EB7734"/>
</svg>
