<svg width="32" height="32" viewBox="0 0 32 32" fill="none" xmlns="http://www.w3.org/2000/svg">
<path d="M24.3337 4.33333C24.8399 4.33333 25.2583 4.70953 25.3245 5.19763L25.3337 5.33333V26.6667C25.3337 27.2189 24.8859 27.6667 24.3337 27.6667C23.8274 27.6667 23.409 27.2905 23.3428 26.8024L23.3337 26.6667V20H20.3337C19.8274 20 19.409 19.6238 19.3428 19.1357L19.3337 19V9.33333C19.3337 6.5719 21.5722 4.33333 24.3337 4.33333ZM16.3337 4.33333C16.8399 4.33333 17.2583 4.70953 17.3245 5.19763L17.3337 5.33333V10.6667C17.3337 13.2701 15.4683 15.4379 13.0011 15.9062L13.0003 26.6667C13.0003 27.2189 12.5526 27.6667 12.0003 27.6667C11.4941 27.6667 11.0757 27.2905 11.0095 26.8024L11.0003 26.6667L11.0009 15.9065C8.6212 15.4553 6.80105 13.4233 6.67408 10.9439L6.66699 10.6667V5.33333C6.66699 4.78104 7.11471 4.33333 7.66699 4.33333C8.17325 4.33333 8.59165 4.70953 8.65786 5.19763L8.66699 5.33333V10.6667C8.66699 12.1594 9.64823 13.423 11.0009 13.8476L11.0003 5.33333C11.0003 4.78104 11.448 4.33333 12.0003 4.33333C12.5066 4.33333 12.925 4.70953 12.9912 5.19763L13.0003 5.33333L13.0011 13.8472C14.278 13.4458 15.2236 12.2967 15.3247 10.9131L15.3337 10.6667V5.33333C15.3337 4.78104 15.7814 4.33333 16.3337 4.33333ZM23.3337 18V6.50403C22.237 6.89164 21.433 7.8988 21.3422 9.10495L21.3337 9.33333V18H23.3337V6.50403V18Z" fill="#EB7734"/>
</svg>
