<svg width="20" height="20" viewBox="0 0 20 20" fill="none" xmlns="http://www.w3.org/2000/svg">
<g opacity="0.3">
<path d="M17.9941 6.0025C17.8992 5.65033 17.7137 5.32917 17.4561 5.07097C17.1985 4.81277 16.8778 4.62655 16.5258 4.53083C15.2208 4.1725 9.99997 4.16666 9.99997 4.16666C9.99997 4.16666 4.77997 4.16083 3.47414 4.50333C3.12241 4.60345 2.80232 4.79231 2.54461 5.05177C2.28689 5.31124 2.10021 5.6326 2.00247 5.985C1.6583 7.29 1.65497 9.99666 1.65497 9.99666C1.65497 9.99666 1.65164 12.7167 1.9933 14.0083C2.18497 14.7225 2.74747 15.2867 3.46247 15.4792C4.7808 15.8375 9.98747 15.8433 9.98747 15.8433C9.98747 15.8433 15.2083 15.8492 16.5133 15.5075C16.8654 15.4119 17.1864 15.2261 17.4447 14.9685C17.7029 14.7108 17.8895 14.3902 17.9858 14.0383C18.3308 12.7342 18.3333 10.0283 18.3333 10.0283C18.3333 10.0283 18.35 7.3075 17.9941 6.0025ZM8.32997 12.5042L8.33414 7.50416L12.6733 10.0083L8.32997 12.5042Z" fill="#333333"/>
</g>
</svg>
