<svg width="24" height="24" viewBox="0 0 24 24" fill="none" xmlns="http://www.w3.org/2000/svg">
<path d="M12 3C13.1135 3 14.1797 3.2022 15.164 3.57189L13.9808 4.76434C13.3498 4.592 12.6856 4.5 12 4.5C7.85786 4.5 4.5 7.85786 4.5 12C4.5 13.4249 4.89727 14.7893 5.63583 15.9704C5.93764 16.453 6.29368 16.9002 6.69639 17.303C7.09848 17.7051 7.5449 18.0608 8.02668 18.3623C9.20844 19.1021 10.5739 19.5 12 19.5C16.1421 19.5 19.5 16.1421 19.5 12C19.5 11.3434 19.4156 10.7064 19.2571 10.0995L20.4505 8.8962C20.8059 9.86371 21 10.9092 21 12C21 16.9706 16.9706 21 12 21C10.2904 21 8.64945 20.5218 7.23081 19.6338C6.65294 19.2721 6.1177 18.8457 5.63566 18.3636C5.1529 17.8808 4.72601 17.3446 4.36401 16.7657C3.4774 15.3478 3 13.7082 3 12C3 7.02943 7.02944 3 12 3ZM21.0602 2.67194L21.2062 2.80791C22.2817 3.88405 22.285 5.62715 21.2135 6.70727L14.9096 13.0617C14.7291 13.2437 14.5049 13.3764 14.2585 13.4471L10.0461 14.656C9.78064 14.7321 9.50371 14.5787 9.42754 14.3133C9.40169 14.2232 9.40168 14.1276 9.42752 14.0375L10.6378 9.81789C10.7074 9.57532 10.837 9.35422 11.0147 9.17506L17.3236 2.81515C18.3448 1.78576 19.9803 1.73646 21.0602 2.67194ZM18.3886 3.87153L12.0796 10.2314L11.3669 12.7164L13.8447 12.0053L20.1486 5.65086C20.6057 5.19 20.6349 4.46512 20.2371 3.97053L20.1415 3.86447C19.6555 3.38237 18.8707 3.38553 18.3886 3.87153Z" fill="white"/>
</svg>
